<mxfile host="65bd71144e">
    <diagram name="Página-1" id="aaGCkiE8xkfBYlqoKyT1">
        <mxGraphModel dx="746" dy="429" grid="1" gridSize="10" guides="1" tooltips="1" connect="1" arrows="1" fold="1" page="1" pageScale="1" pageWidth="827" pageHeight="1169" background="#0d0c0c" math="0" shadow="0">
            <root>
                <mxCell id="0"/>
                <mxCell id="1" parent="0"/>
                <mxCell id="jcSnNQON1pVsvE090eND-7" value="" style="edgeStyle=orthogonalEdgeStyle;rounded=1;orthogonalLoop=1;jettySize=auto;html=1;startArrow=none;" parent="1" source="13" edge="1">
                    <mxGeometry relative="1" as="geometry">
                        <mxPoint x="410" y="210" as="targetPoint"/>
                        <mxPoint x="410" y="60" as="sourcePoint"/>
                    </mxGeometry>
                </mxCell>
                <mxCell id="33" value="" style="edgeStyle=none;rounded=1;html=1;" edge="1" parent="1" source="jcSnNQON1pVsvE090eND-3" target="13">
                    <mxGeometry relative="1" as="geometry"/>
                </mxCell>
                <mxCell id="jcSnNQON1pVsvE090eND-3" value="Futuro" style="whiteSpace=wrap;html=1;strokeWidth=2;rounded=1;" parent="1" vertex="1">
                    <mxGeometry x="500" y="50" width="120" height="60" as="geometry"/>
                </mxCell>
                <mxCell id="32" value="" style="edgeStyle=none;rounded=1;html=1;" edge="1" parent="1" source="jcSnNQON1pVsvE090eND-5" target="13">
                    <mxGeometry relative="1" as="geometry"/>
                </mxCell>
                <mxCell id="jcSnNQON1pVsvE090eND-5" value="Historia" style="whiteSpace=wrap;html=1;strokeWidth=2;rounded=1;" parent="1" vertex="1">
                    <mxGeometry x="200" y="50" width="120" height="60" as="geometry"/>
                </mxCell>
                <mxCell id="jcSnNQON1pVsvE090eND-11" value="" style="edgeStyle=orthogonalEdgeStyle;rounded=1;orthogonalLoop=1;jettySize=auto;html=1;" parent="1" target="jcSnNQON1pVsvE090eND-10" edge="1">
                    <mxGeometry relative="1" as="geometry">
                        <mxPoint x="360" y="250" as="sourcePoint"/>
                    </mxGeometry>
                </mxCell>
                <mxCell id="jcSnNQON1pVsvE090eND-15" value="" style="edgeStyle=orthogonalEdgeStyle;rounded=1;orthogonalLoop=1;jettySize=auto;html=1;" parent="1" target="jcSnNQON1pVsvE090eND-14" edge="1">
                    <mxGeometry relative="1" as="geometry">
                        <mxPoint x="460" y="250" as="sourcePoint"/>
                    </mxGeometry>
                </mxCell>
                <mxCell id="jcSnNQON1pVsvE090eND-19" value="" style="edgeStyle=orthogonalEdgeStyle;rounded=1;orthogonalLoop=1;jettySize=auto;html=1;" parent="1" source="jcSnNQON1pVsvE090eND-10" target="jcSnNQON1pVsvE090eND-18" edge="1">
                    <mxGeometry relative="1" as="geometry"/>
                </mxCell>
                <mxCell id="jcSnNQON1pVsvE090eND-10" value="Adoção" style="rounded=1;whiteSpace=wrap;html=1;strokeWidth=2;fillColor=#d80073;fontColor=#ffffff;strokeColor=#A50040;" parent="1" vertex="1">
                    <mxGeometry x="150" y="220" width="120" height="60" as="geometry"/>
                </mxCell>
                <mxCell id="jcSnNQON1pVsvE090eND-40" value="" style="edgeStyle=orthogonalEdgeStyle;rounded=1;orthogonalLoop=1;jettySize=auto;html=1;" parent="1" source="jcSnNQON1pVsvE090eND-12" target="jcSnNQON1pVsvE090eND-39" edge="1">
                    <mxGeometry relative="1" as="geometry"/>
                </mxCell>
                <mxCell id="jcSnNQON1pVsvE090eND-12" value="Doação" style="whiteSpace=wrap;html=1;strokeWidth=2;rounded=1;fillColor=#d80073;fontColor=#ffffff;strokeColor=#A50040;" parent="1" vertex="1">
                    <mxGeometry x="140" y="460" width="120" height="60" as="geometry"/>
                </mxCell>
                <mxCell id="jcSnNQON1pVsvE090eND-34" value="" style="edgeStyle=orthogonalEdgeStyle;rounded=1;orthogonalLoop=1;jettySize=auto;html=1;startArrow=none;" parent="1" source="jcSnNQON1pVsvE090eND-44" target="jcSnNQON1pVsvE090eND-33" edge="1">
                    <mxGeometry relative="1" as="geometry"/>
                </mxCell>
                <mxCell id="jcSnNQON1pVsvE090eND-45" value="" style="edgeStyle=orthogonalEdgeStyle;rounded=1;orthogonalLoop=1;jettySize=auto;html=1;" parent="1" source="jcSnNQON1pVsvE090eND-14" target="jcSnNQON1pVsvE090eND-44" edge="1">
                    <mxGeometry relative="1" as="geometry"/>
                </mxCell>
                <mxCell id="jcSnNQON1pVsvE090eND-14" value="Parceria" style="whiteSpace=wrap;html=1;strokeWidth=2;rounded=1;fillColor=#d80073;fontColor=#ffffff;strokeColor=#A50040;" parent="1" vertex="1">
                    <mxGeometry x="550" y="220" width="120" height="60" as="geometry"/>
                </mxCell>
                <mxCell id="jcSnNQON1pVsvE090eND-21" value="" style="edgeStyle=orthogonalEdgeStyle;rounded=1;orthogonalLoop=1;jettySize=auto;html=1;" parent="1" source="jcSnNQON1pVsvE090eND-18" target="jcSnNQON1pVsvE090eND-20" edge="1">
                    <mxGeometry relative="1" as="geometry"/>
                </mxCell>
                <mxCell id="jcSnNQON1pVsvE090eND-23" value="" style="edgeStyle=orthogonalEdgeStyle;rounded=1;orthogonalLoop=1;jettySize=auto;html=1;" parent="1" source="jcSnNQON1pVsvE090eND-18" target="jcSnNQON1pVsvE090eND-22" edge="1">
                    <mxGeometry relative="1" as="geometry"/>
                </mxCell>
                <mxCell id="jcSnNQON1pVsvE090eND-18" value="" style="rhombus;whiteSpace=wrap;html=1;rounded=1;strokeWidth=2;fillColor=#ffcd28;gradientColor=#ffa500;strokeColor=#d79b00;" parent="1" vertex="1">
                    <mxGeometry x="40" y="210" width="80" height="80" as="geometry"/>
                </mxCell>
                <mxCell id="jcSnNQON1pVsvE090eND-20" value="Cadastro" style="whiteSpace=wrap;html=1;rounded=1;strokeWidth=2;" parent="1" vertex="1">
                    <mxGeometry x="20" y="100" width="120" height="60" as="geometry"/>
                </mxCell>
                <mxCell id="jcSnNQON1pVsvE090eND-22" value="Divulgação" style="whiteSpace=wrap;html=1;rounded=1;strokeWidth=2;" parent="1" vertex="1">
                    <mxGeometry x="20" y="330" width="120" height="60" as="geometry"/>
                </mxCell>
                <mxCell id="jcSnNQON1pVsvE090eND-41" value="" style="edgeStyle=orthogonalEdgeStyle;rounded=1;orthogonalLoop=1;jettySize=auto;html=1;" parent="1" source="jcSnNQON1pVsvE090eND-28" target="jcSnNQON1pVsvE090eND-39" edge="1">
                    <mxGeometry relative="1" as="geometry"/>
                </mxCell>
                <mxCell id="jcSnNQON1pVsvE090eND-28" value="Financeira" style="whiteSpace=wrap;html=1;strokeWidth=2;rounded=1;" parent="1" vertex="1">
                    <mxGeometry x="20" y="600" width="120" height="60" as="geometry"/>
                </mxCell>
                <mxCell id="jcSnNQON1pVsvE090eND-42" value="" style="edgeStyle=orthogonalEdgeStyle;rounded=1;orthogonalLoop=1;jettySize=auto;html=1;" parent="1" source="jcSnNQON1pVsvE090eND-30" target="jcSnNQON1pVsvE090eND-39" edge="1">
                    <mxGeometry relative="1" as="geometry"/>
                </mxCell>
                <mxCell id="jcSnNQON1pVsvE090eND-30" value="Tempo/Trabalho" style="whiteSpace=wrap;html=1;strokeWidth=2;rounded=1;" parent="1" vertex="1">
                    <mxGeometry x="140" y="690" width="120" height="60" as="geometry"/>
                </mxCell>
                <mxCell id="jcSnNQON1pVsvE090eND-33" value="Propaganda" style="whiteSpace=wrap;html=1;strokeWidth=2;rounded=1;" parent="1" vertex="1">
                    <mxGeometry x="690" y="110" width="120" height="60" as="geometry"/>
                </mxCell>
                <mxCell id="jcSnNQON1pVsvE090eND-46" value="" style="edgeStyle=orthogonalEdgeStyle;rounded=1;orthogonalLoop=1;jettySize=auto;html=1;" parent="1" source="jcSnNQON1pVsvE090eND-35" target="jcSnNQON1pVsvE090eND-44" edge="1">
                    <mxGeometry relative="1" as="geometry"/>
                </mxCell>
                <mxCell id="jcSnNQON1pVsvE090eND-35" value="Patrocinio" style="whiteSpace=wrap;html=1;strokeWidth=2;rounded=1;" parent="1" vertex="1">
                    <mxGeometry x="690" y="320" width="120" height="60" as="geometry"/>
                </mxCell>
                <mxCell id="jcSnNQON1pVsvE090eND-39" value="" style="rhombus;whiteSpace=wrap;html=1;strokeWidth=2;rounded=1;fillColor=#ffcd28;gradientColor=#ffa500;strokeColor=#d79b00;" parent="1" vertex="1">
                    <mxGeometry x="160" y="590" width="80" height="80" as="geometry"/>
                </mxCell>
                <mxCell id="8" value="" style="edgeStyle=orthogonalEdgeStyle;rounded=1;orthogonalLoop=1;jettySize=auto;html=1;endArrow=none;" edge="1" parent="1" source="jcSnNQON1pVsvE090eND-14" target="jcSnNQON1pVsvE090eND-44">
                    <mxGeometry relative="1" as="geometry">
                        <mxPoint x="670" y="250" as="sourcePoint"/>
                        <mxPoint x="930" y="130" as="targetPoint"/>
                    </mxGeometry>
                </mxCell>
                <mxCell id="jcSnNQON1pVsvE090eND-44" value="" style="rhombus;whiteSpace=wrap;html=1;strokeWidth=2;rounded=1;fillColor=#ffcd28;gradientColor=#ffa500;strokeColor=#d79b00;" parent="1" vertex="1">
                    <mxGeometry x="710" y="210" width="80" height="80" as="geometry"/>
                </mxCell>
                <mxCell id="9" value="" style="verticalLabelPosition=bottom;verticalAlign=top;html=1;shape=mxgraph.flowchart.summing_function;rounded=1;" vertex="1" parent="1">
                    <mxGeometry x="367.5" y="210" width="85" height="80" as="geometry"/>
                </mxCell>
                <mxCell id="18" value="Castração" style="whiteSpace=wrap;html=1;strokeWidth=2;rounded=1;fillColor=#d80073;fontColor=#ffffff;strokeColor=#A50040;" vertex="1" parent="1">
                    <mxGeometry x="350" y="460" width="120" height="60" as="geometry"/>
                </mxCell>
                <mxCell id="20" value="Resgate" style="whiteSpace=wrap;html=1;strokeWidth=2;rounded=1;fillColor=#d80073;fontColor=#ffffff;strokeColor=#A50040;" vertex="1" parent="1">
                    <mxGeometry x="560" y="460" width="120" height="60" as="geometry"/>
                </mxCell>
                <mxCell id="13" value="plataforma" style="strokeWidth=2;html=1;shape=mxgraph.flowchart.start_1;whiteSpace=wrap;rounded=1;fillColor=#d80073;fontColor=#ffffff;strokeColor=#A50040;" vertex="1" parent="1">
                    <mxGeometry x="360" y="50" width="100" height="60" as="geometry"/>
                </mxCell>
                <mxCell id="36" value="" style="endArrow=classic;html=1;rounded=1;exitX=0.5;exitY=0;exitDx=0;exitDy=0;entryX=0.5;entryY=1;entryDx=0;entryDy=0;entryPerimeter=0;" edge="1" parent="1" source="18" target="9">
                    <mxGeometry width="50" height="50" relative="1" as="geometry">
                        <mxPoint x="410" y="450" as="sourcePoint"/>
                        <mxPoint x="410" y="300" as="targetPoint"/>
                    </mxGeometry>
                </mxCell>
                <mxCell id="37" value="" style="endArrow=classic;html=1;rounded=1;entryX=0.145;entryY=0.855;entryDx=0;entryDy=0;entryPerimeter=0;" edge="1" parent="1" target="9">
                    <mxGeometry width="50" height="50" relative="1" as="geometry">
                        <mxPoint x="200" y="460" as="sourcePoint"/>
                        <mxPoint x="250" y="410" as="targetPoint"/>
                    </mxGeometry>
                </mxCell>
                <mxCell id="38" value="" style="endArrow=classic;html=1;rounded=1;entryX=0.855;entryY=0.855;entryDx=0;entryDy=0;entryPerimeter=0;" edge="1" parent="1" target="9">
                    <mxGeometry width="50" height="50" relative="1" as="geometry">
                        <mxPoint x="620" y="460" as="sourcePoint"/>
                        <mxPoint x="540" y="410" as="targetPoint"/>
                    </mxGeometry>
                </mxCell>
            </root>
        </mxGraphModel>
    </diagram>
</mxfile>